<svg xmlns="http://www.w3.org/2000/svg" viewBox="0 0 38.51 38.51" id="discord">
  <defs>
    <linearGradient id="a" x1="2.05" x2="36.46" y1="2.05" y2="36.46" gradientUnits="userSpaceOnUse">
      <stop offset="0" stop-color="#566af6"></stop>
      <stop offset="1" stop-color="#2c44b7"></stop>
    </linearGradient>
  </defs>
  <g style="isolation:isolate">
    <g>
      <g>
        <g>
          <rect width="38.51" height="38.51" fill="url(#a)" rx="6.97" ry="6.97"></rect>
          <path fill="#5569f5" d="M38.51,31.54v-10.81c-3.27-3.35-6.63-6.59-9.9-9.94-1.77-.81-3.64-1.39-5.56-1.72-.24.43-.52,1-.71,1.46-1.83-.27-3.68-.29-5.51-.07-.47-.43-.94-.88-1.38-1.39-1.92.33-3.79.91-5.56,1.73-3.51,5.23-4.46,10.34-3.99,15.37,4.16,4.09,8.23,8.24,12.37,12.35h13.27c3.83,0,6.97-3.14,6.97-6.97Z" style="mix-blend-mode:multiply"></path>
          <path fill="#fff" d="M28.61,10.7c-1.77-.81-3.64-1.39-5.56-1.72-.24.43-.52,1-.71,1.46-2.04-.3-4.12-.3-6.16,0-.22-.5-.46-.99-.73-1.46-1.92.33-3.79.91-5.56,1.73-3.51,5.23-4.46,10.34-3.99,15.37,2.06,1.53,4.37,2.7,6.82,3.44.55-.75,1.04-1.54,1.46-2.37-.8-.3-1.57-.67-2.3-1.1.19-.14.38-.29.56-.44,4.32,2.04,9.33,2.04,13.64,0,.18.15.37.3.56.44-.73.44-1.51.8-2.3,1.1.42.83.91,1.62,1.46,2.37,2.46-.75,4.76-1.91,6.82-3.44.56-5.83-.96-10.89-4.01-15.38ZM14.77,22.99c-1.33,0-2.42-1.22-2.42-2.71s1.07-2.72,2.42-2.72,2.44,1.22,2.42,2.72c-.01,1.5-1.07,2.72-2.42,2.72ZM23.73,22.99c-1.33,0-2.42-1.22-2.42-2.71s1.07-2.72,2.42-2.72,2.44,1.22,2.42,2.72c-.01,1.5-1.07,2.72-2.42,2.72Z"></path>
        </g>
      </g>
    </g>
  </g>
</svg>
